<svg width="27" height="26" viewBox="0 0 27 26" fill="none" xmlns="http://www.w3.org/2000/svg">
<path d="M13.5 6.90625C13.5 10.2717 10.7246 13 7.30103 13H1.10205V6.90625C1.10205 3.54076 3.87742 0.8125 7.30103 0.8125C10.7246 0.8125 13.5 3.54076 13.5 6.90625Z" fill="#1A0B1E"/>
<path d="M13.5 19.0938C13.5 15.7283 16.2754 13 19.699 13H25.898V19.0938C25.898 22.4592 23.1226 25.1875 19.699 25.1875C16.2754 25.1875 13.5 22.4592 13.5 19.0938Z" fill="#1A0B1E"/>
<path d="M1.10205 19.0938C1.10205 22.4592 3.87742 25.1875 7.30103 25.1875H13.5V19.0938C13.5 15.7283 10.7246 13 7.30103 13C3.87742 13 1.10205 15.7283 1.10205 19.0938Z" fill="#F5F5DC"/>
<path d="M25.898 6.90625C25.898 3.54076 23.1226 0.8125 19.699 0.8125H13.5V6.90625C13.5 10.2717 16.2754 13 19.699 13C23.1226 13 25.898 10.2717 25.898 6.90625Z" fill="#F5F5DC"/>
</svg>
